<svg width="44" height="44" viewBox="0 0 44 44" fill="none" xmlns="http://www.w3.org/2000/svg">
<g clip-path="url(#clip0_12_37)">
<path d="M8.64711 23.3593C7.93274 21.8005 7.57062 20.1506 7.57062 18.4555C7.57062 18.1256 7.72222 17.8136 7.98177 17.6099C8.24143 17.4059 8.58023 17.3326 8.90086 17.411C12.5295 18.2969 15.0147 18.1059 16.7218 16.8091C19.2938 14.8554 20.5689 9.9924 20.8561 1.0408C20.8747 0.460617 21.3504 0 21.9308 0H22.9433C23.3958 0 23.7998 0.283209 23.954 0.708559C25.3983 4.68971 28.384 7.53061 31.0182 10.0372C33.9216 12.7999 36.429 15.1858 36.429 18.4559C36.429 20.1512 36.0669 21.8009 35.3529 23.3592C35.172 23.7539 34.7823 23.9869 34.3748 23.9869C34.2249 23.9869 34.0727 23.9554 33.9276 23.8889C33.3877 23.6416 33.1506 23.0034 33.398 22.4636C33.9822 21.1883 34.2784 19.8399 34.2784 18.4559C34.2784 16.1079 32.0806 14.0167 29.5357 11.5951C27.212 9.38394 24.6315 6.9285 22.8948 3.6186C22.6913 7.16558 22.3111 9.91348 21.7214 12.1436C20.9267 15.1482 19.7168 17.2345 18.0224 18.5214C16.0169 20.0448 13.3859 20.4623 9.81661 19.8066C9.94681 20.7174 10.2094 21.6067 10.6019 22.4634C10.8493 23.0032 10.6123 23.6414 10.0724 23.8888C9.53243 24.1365 8.89451 23.8991 8.64711 23.3593ZM39.8638 42.9244C39.8638 43.5181 39.3823 43.9996 38.7886 43.9996H36.02C36.0097 43.9999 35.9996 44 35.9894 44C35.9792 44 35.9691 43.9999 35.9589 43.9996H33.1925C32.5988 43.9996 32.1173 43.5181 32.1173 42.9244C32.1173 42.3306 32.5988 41.8492 33.1925 41.8492H34.6598L33.6669 37.2247C30.489 39.9027 26.3967 41.4929 22.0001 41.4929C17.6033 41.4929 13.5108 39.9026 10.333 37.2246L9.33997 41.8492H10.8074C11.4012 41.8492 11.8826 42.3306 11.8826 42.9244C11.8826 43.5181 11.4012 43.9996 10.8074 43.9996H8.04091C8.0207 44.0002 8.00027 44.0002 7.97984 43.9996H5.21119C4.61735 43.9996 4.13599 43.5181 4.13599 42.9244C4.13599 42.3306 4.61735 41.8492 5.21119 41.8492H7.14053L8.51249 35.4598C6.39079 33.0946 4.87476 30.1564 4.23523 26.8678C4.17394 26.5526 4.25673 26.2265 4.46102 25.9786C4.6652 25.7308 4.96948 25.5873 5.29065 25.5873H38.7093C39.0303 25.5873 39.3346 25.7308 39.539 25.9786C39.7432 26.2265 39.826 26.5526 39.7648 26.8678C39.1252 30.1564 37.609 33.0948 35.4873 35.4599L36.8594 41.8492H38.7887C39.3824 41.8492 39.8638 42.3305 39.8638 42.9244ZM37.3493 27.7378H6.65046C8.56658 34.5354 14.824 39.3427 21.9999 39.3427C29.1757 39.3425 35.4331 34.5353 37.3493 27.7378ZM12.1308 16.4376C12.29 16.5209 12.4605 16.5605 12.6286 16.5605C13.0158 16.5605 13.3899 16.3506 13.582 15.9839C14.6235 13.9948 14.937 11.3639 15.1583 7.7249C15.5169 8.18864 15.9247 8.64549 16.3784 9.09074C16.802 9.50662 17.4828 9.5006 17.8989 9.07676C18.3149 8.65313 18.3087 7.97231 17.8849 7.5562C17.2228 6.90614 16.6838 6.23768 16.283 5.56944C16.0887 5.24549 15.7386 5.04743 15.361 5.04743H14.1717C13.6 5.04743 13.1283 5.49472 13.098 6.06565C12.8834 10.1098 12.6559 13.1169 11.677 14.9864C11.4016 15.5123 11.6048 16.162 12.1308 16.4376ZM27.5655 23.8548C27.7292 23.9443 27.9059 23.9868 28.0802 23.9868C28.4606 23.9868 28.8293 23.7844 29.0246 23.4271C29.734 22.1294 30.0935 20.752 30.0935 19.3332C30.0935 17.0624 28.3641 15.2905 26.4951 13.714C26.0414 13.3312 25.3629 13.3888 24.98 13.8426C24.597 14.2964 24.6547 14.9748 25.1086 15.3577C26.5806 16.5995 27.943 17.9405 27.943 19.3332C27.943 20.3876 27.672 21.4179 27.1376 22.3957C26.8529 22.9168 27.0445 23.5701 27.5655 23.8548ZM22.0001 34.6523C18.5565 34.6523 15.2798 32.9939 13.235 30.2161C12.883 29.7378 12.2099 29.6356 11.7318 29.9875C11.2535 30.3395 11.1513 31.0126 11.5033 31.4908C13.9516 34.8169 17.8757 36.8026 22.0001 36.8026C22.5938 36.8026 23.0753 36.3211 23.0753 35.7274C23.0753 35.1337 22.5938 34.6523 22.0001 34.6523Z" fill="#F63E02"/>
</g>
<defs>
<clipPath id="clip0_12_37">
<rect width="44" height="44" fill="white"/>
</clipPath>
</defs>
</svg>
