<svg width="800" height="800" viewBox="0 0 800 800" fill="none" xmlns="http://www.w3.org/2000/svg">
<path d="M102.056 241.488C103.615 207.421 108.949 185.45 116.162 166.801L116.259 166.543C123.408 147.565 134.606 130.373 149.075 116.163L149.278 115.964L149.477 115.761C163.699 101.273 180.897 90.086 199.858 82.9566L200.185 82.8316C218.793 75.5953 240.721 70.281 274.816 68.7223M102.056 241.488C100.417 277.886 99.999 289.169 99.999 383.543C99.999 477.937 100.394 489.193 102.055 525.6M102.056 241.488V250.669M274.816 68.7223C311.223 67.0613 322.502 66.6666 416.873 66.6666C511.247 66.6666 522.52 67.084 558.917 68.7226M274.816 68.7223H284.021M102.055 525.6C103.613 559.697 108.928 581.623 116.164 600.23L116.289 600.56M102.055 525.6L102.613 528.54M102.055 525.6V516.397M102.056 250.669C102.183 247.752 102.32 244.712 102.467 241.478C104.176 204.205 110.512 182.427 116.552 166.98C124.368 146.807 134.27 131.585 149.397 116.395C163.776 101.645 181.256 90.279 200.569 83.1193C215.948 77.1546 237.668 70.8373 274.801 69.1353C278.045 68.988 281.095 68.8503 284.021 68.7223M102.056 250.669C100.707 281.515 100.417 298.53 100.417 383.543C100.417 468.527 100.707 485.567 102.055 516.397M102.056 250.669L102.055 516.397M116.289 600.56C123.418 619.52 134.606 636.717 149.093 650.94L149.296 651.14L149.495 651.34C163.705 665.81 180.898 677.01 199.876 684.157L200.159 684.263C218.784 691.487 240.722 696.803 274.816 698.363M116.289 600.56L115.862 598.307M115.862 598.307L102.613 528.54M115.862 598.307C110.235 583.443 104.441 562.7 102.613 528.54M115.862 598.307C116.059 598.83 116.256 599.343 116.453 599.85C123.589 619.087 134.895 636.507 149.56 650.853C163.903 665.517 181.315 676.82 200.545 683.957C215.978 689.967 237.724 696.25 274.81 697.95C312.237 699.653 323.8 700 416.873 700C509.95 700 521.523 699.653 558.95 697.95C596.08 696.247 617.8 689.93 633.18 683.967C652.42 676.833 669.843 665.523 684.19 650.853C698.85 636.51 710.153 619.1 717.29 599.87C723.3 584.437 729.583 562.693 731.28 525.607C732.983 488.18 733.333 476.593 733.333 383.543C733.333 290.491 732.983 278.895 731.28 241.468C729.57 204.142 723.197 182.389 717.203 166.997C709.37 146.774 699.437 131.479 684.167 116.209C668.927 101 653.673 91.0596 633.433 83.218C617.987 77.179 596.22 70.8436 558.95 69.1353C555.707 68.988 552.66 68.8506 549.737 68.7226M102.613 528.54C102.561 527.577 102.513 526.603 102.468 525.617C102.32 522.373 102.183 519.323 102.055 516.397M549.737 68.7226H558.917M549.737 68.7226L284.021 68.7223M549.737 68.7226C518.903 67.3746 501.867 67.0843 416.873 67.0843C331.889 67.0843 314.849 67.3743 284.021 68.7223M558.917 68.7226C592.99 70.2813 614.963 75.6146 633.617 82.829L633.873 82.927C652.85 90.0753 670.043 101.274 684.253 115.742L684.45 115.943L684.653 116.141C699.123 130.352 710.32 147.549 717.463 166.532L717.583 166.853C724.82 185.46 730.137 207.388 731.693 241.483M731.693 525.6C730.137 559.693 724.82 581.633 717.597 600.257L717.49 600.54C710.34 619.52 699.143 636.71 684.673 650.92L684.47 651.12L684.273 651.323C670.05 665.81 652.853 676.997 633.89 684.127L633.563 684.253C614.957 691.49 593.027 696.803 558.933 698.363M360.517 519.603C378.383 527.003 397.533 530.813 416.873 530.813C455.933 530.813 493.393 515.297 521.013 487.68C548.63 460.06 564.147 422.6 564.147 383.543C564.147 344.483 548.63 307.024 521.013 279.405C493.393 251.786 455.933 236.27 416.873 236.27C397.533 236.27 378.383 240.079 360.517 247.481C342.647 254.882 326.413 265.73 312.738 279.405C299.062 293.081 288.214 309.316 280.813 327.184C273.412 345.05 269.603 364.203 269.603 383.543C269.603 402.883 273.412 422.033 280.813 439.9C288.214 457.77 299.062 474.003 312.738 487.68C326.413 501.353 342.647 512.203 360.517 519.603ZM312.41 279.077C340.117 251.371 377.693 235.806 416.873 235.806C456.057 235.806 493.633 251.371 521.34 279.077C549.047 306.783 564.61 344.36 564.61 383.543C564.61 422.723 549.047 460.3 521.34 488.007C493.633 515.713 456.057 531.277 416.873 531.277C377.693 531.277 340.117 515.713 312.41 488.007C284.704 460.3 269.139 422.723 269.139 383.543C269.139 344.36 284.704 306.783 312.41 279.077ZM647.8 201.41C647.8 212.624 643.343 223.38 635.417 231.31C627.487 239.24 616.73 243.695 605.517 243.695C594.3 243.695 583.547 239.24 575.617 231.31C567.687 223.38 563.23 212.624 563.23 201.41C563.23 190.195 567.687 179.44 575.617 171.51C583.547 163.58 594.3 159.125 605.517 159.125C616.73 159.125 627.487 163.58 635.417 171.51C643.343 179.44 647.8 190.195 647.8 201.41Z" stroke="#E6AF2E" stroke-width="33.3333" stroke-linejoin="round"/>
</svg>
